<?xml version="1.0" standalone="no"?>
<!DOCTYPE svg PUBLIC "-//W3C//DTD SVG 20010904//EN"
 "http://www.w3.org/TR/2001/REC-SVG-20010904/DTD/svg10.dtd">
<svg version="1.0" xmlns="http://www.w3.org/2000/svg"
 width="100.000000pt" height="100.000000pt" viewBox="0 0 100.000000 100.000000"
 preserveAspectRatio="xMidYMid meet">

<g transform="translate(0.000000,100.000000) scale(0.100000,-0.100000)"
fill="#000000" stroke="none">
<path d="M383 986 c-131 -32 -271 -142 -326 -256 -99 -207 -65 -424 92 -581
199 -198 503 -198 702 0 198 199 198 503 0 702 -126 125 -299 176 -468 135z
m72 -256 c4 -6 9 -45 11 -87 4 -54 11 -84 25 -104 17 -25 19 -42 17 -151 l-3
-123 -95 0 -95 0 -3 123 c-2 109 0 126 17 151 14 20 21 50 25 104 2 42 7 81
11 87 3 5 24 10 45 10 21 0 42 -5 45 -10z m195 -13 l45 -22 3 -69 c2 -48 -3
-90 -19 -142 -19 -63 -20 -80 -11 -113 17 -56 15 -89 -7 -101 -25 -13 -131
-13 -131 0 0 6 24 10 53 10 78 0 82 5 67 81 -11 58 -11 70 9 133 25 82 28 136
6 136 -11 0 -15 -12 -15 -49 0 -85 -61 -99 -68 -15 -5 51 -17 64 -63 64 -22 0
-39 5 -39 10 0 12 80 13 99 1 8 -5 17 -30 20 -56 8 -64 25 -61 31 5 4 48 8 55
28 58 24 4 29 24 10 39 -45 32 -125 37 -114 7 6 -16 -20 -19 -29 -4 -3 6 -15
10 -26 10 -10 0 -19 5 -19 10 0 6 12 10 28 10 15 0 34 5 42 10 23 15 51 11
100 -13z"/>
<path d="M379 713 c0 -5 -2 -41 -4 -81 -3 -52 -10 -81 -25 -101 -32 -47 -27
-51 60 -51 87 0 92 4 60 51 -15 20 -22 49 -25 101 -2 40 -4 76 -4 81 -1 4 -14
7 -31 7 -16 0 -30 -3 -31 -7z"/>
<path d="M330 405 l0 -55 80 0 80 0 0 55 0 55 -80 0 -80 0 0 -55z"/>
<path d="M330 305 c0 -25 1 -25 80 -25 79 0 80 0 80 25 0 25 -1 25 -80 25 -79
0 -80 0 -80 -25z"/>
</g>
</svg>
