<svg version="1.0" xmlns="http://www.w3.org/2000/svg"
 width="100.000000pt" height="100.000000pt" viewBox="0 0 100.000000 100.000000"
 preserveAspectRatio="xMidYMid meet">

<g transform="translate(0.000000,100.000000) scale(0.100000,-0.100000)"
fill="#000000" stroke="none">
<path d="M383 986 c-131 -32 -271 -142 -326 -256 -99 -207 -65 -424 92 -581
199 -198 503 -198 702 0 198 199 198 503 0 702 -126 125 -299 176 -468 135z
m191 -258 c58 -18 128 -90 145 -151 16 -57 10 -123 -16 -174 -19 -37 -19 -39
-2 -78 26 -59 24 -65 -20 -65 -30 0 -44 6 -55 22 -14 20 -19 20 -54 10 -50
-15 -94 -15 -144 0 -35 10 -40 10 -54 -10 -11 -16 -25 -22 -55 -22 -44 0 -46
6 -20 65 17 39 17 41 -2 78 -47 91 -30 195 42 267 66 66 144 85 235 58z"/>
<path d="M435 708 c-44 -16 -88 -49 -78 -59 5 -5 30 3 57 16 27 14 55 25 63
25 7 0 13 7 13 15 0 17 -13 18 -55 3z"/>
<path d="M510 705 c0 -8 6 -15 13 -15 8 0 36 -11 63 -25 54 -27 82 -19 37 12
-26 19 -86 43 -104 43 -5 0 -9 -7 -9 -15z"/>
<path d="M453 663 c-10 -3 -13 -44 -13 -153 0 -161 0 -160 60 -160 60 0 60 -1
60 160 0 126 -2 149 -16 154 -18 7 -73 7 -91 -1z m77 -208 c26 -32 -13 -81
-47 -59 -23 14 -28 41 -13 59 16 19 44 19 60 0z"/>
<path d="M484 439 c-10 -17 13 -36 27 -22 12 12 4 33 -11 33 -5 0 -12 -5 -16
-11z"/>
<path d="M317 608 c-25 -54 -31 -88 -15 -88 17 0 53 99 40 112 -6 6 -15 -3
-25 -24z"/>
<path d="M373 603 c-40 -52 -40 -134 0 -186 15 -20 32 -37 38 -37 5 0 9 55 9
130 0 75 -4 130 -9 130 -6 0 -23 -17 -38 -37z"/>
<path d="M580 510 c0 -75 4 -130 9 -130 6 0 23 17 38 37 23 30 28 46 28 93 0
47 -5 63 -28 93 -15 20 -32 37 -38 37 -5 0 -9 -55 -9 -130z"/>
<path d="M656 631 c-10 -15 26 -111 41 -111 16 0 16 8 1 51 -15 47 -34 73 -42
60z"/>
<path d="M290 491 c0 -18 24 -78 43 -104 31 -45 39 -17 12 37 -14 27 -25 55
-25 63 0 7 -7 13 -15 13 -8 0 -15 -4 -15 -9z"/>
<path d="M680 487 c0 -8 -11 -36 -25 -63 -27 -54 -19 -82 12 -37 19 26 43 86
43 104 0 5 -7 9 -15 9 -8 0 -15 -6 -15 -13z"/>
<path d="M376 351 c-6 -9 42 -35 87 -46 49 -13 31 19 -22 38 -56 20 -58 20
-65 8z"/>
<path d="M553 342 c-49 -19 -61 -49 -15 -37 44 11 92 37 86 46 -7 12 -20 10
-71 -9z"/>
<path d="M321 319 c-14 -41 -14 -39 9 -39 30 0 43 34 21 54 -18 16 -19 15 -30
-15z"/>
<path d="M648 333 c-20 -22 -7 -53 23 -53 16 0 19 4 13 23 -13 44 -19 49 -36
30z"/>
</g>
</svg>
