<?xml version="1.0" standalone="no"?>
<!DOCTYPE svg PUBLIC "-//W3C//DTD SVG 20010904//EN"
 "http://www.w3.org/TR/2001/REC-SVG-20010904/DTD/svg10.dtd">
<svg version="1.0" xmlns="http://www.w3.org/2000/svg"
 width="100.000000pt" height="100.000000pt" viewBox="0 0 100.000000 100.000000"
 preserveAspectRatio="xMidYMid meet">

<g transform="translate(0.000000,100.000000) scale(0.100000,-0.100000)"
fill="#000000" stroke="none">
<path d="M383 986 c-131 -32 -271 -142 -326 -256 -99 -207 -65 -424 92 -581
199 -198 503 -198 702 0 198 199 198 503 0 702 -126 125 -299 176 -468 135z
m197 -269 c41 -20 46 -26 51 -67 4 -25 10 -66 14 -92 4 -26 5 -58 1 -73 -9
-34 -69 -100 -106 -115 -42 -18 -42 -61 0 -77 17 -6 30 -17 30 -23 0 -8 -6 -9
-17 -4 -10 4 -34 8 -53 8 -19 0 -43 -4 -52 -8 -12 -5 -18 -4 -18 4 0 6 14 17
30 23 42 16 42 59 0 77 -37 15 -97 81 -106 115 -4 15 -3 45 0 68 4 23 10 64
13 90 6 52 29 77 73 77 14 0 32 5 40 10 23 15 51 11 100 -13z"/>
<path d="M491 711 c-7 -5 -10 -14 -7 -20 9 -15 -9 -14 -34 1 -23 15 -53 2 -58
-26 -3 -13 6 -16 50 -16 69 0 81 -9 87 -65 8 -64 25 -61 31 5 4 48 8 55 28 58
24 4 30 26 10 39 -13 8 -79 33 -88 33 -3 0 -11 -4 -19 -9z"/>
<path d="M379 576 c-14 -66 -8 -95 31 -140 61 -69 119 -69 180 0 39 45 45 74
31 140 -16 71 -41 75 -41 5 0 -85 -61 -99 -68 -15 -5 53 -17 64 -73 64 l-48 0
-12 -54z m31 -72 c0 -21 63 -84 84 -84 9 0 16 -4 16 -10 0 -23 -45 -7 -81 29
-36 36 -52 81 -29 81 6 0 10 -7 10 -16z"/>
</g>
</svg>
