<?xml version="1.0" standalone="no"?>
<!DOCTYPE svg PUBLIC "-//W3C//DTD SVG 20010904//EN"
 "http://www.w3.org/TR/2001/REC-SVG-20010904/DTD/svg10.dtd">
<svg version="1.0" xmlns="http://www.w3.org/2000/svg"
 width="100.000000pt" height="100.000000pt" viewBox="0 0 100.000000 100.000000"
 preserveAspectRatio="xMidYMid meet">

<g transform="translate(0.000000,100.000000) scale(0.100000,-0.100000)"
fill="#000000" stroke="none">
<path d="M383 986 c-131 -32 -271 -142 -326 -256 -99 -207 -65 -424 92 -581
199 -198 503 -198 702 0 198 199 198 503 0 702 -126 125 -299 176 -468 135z
m127 -270 c0 -19 7 -25 32 -30 52 -10 104 -51 127 -98 24 -51 28 -98 7 -98 -8
0 -14 -6 -13 -12 1 -38 -5 -60 -20 -76 -10 -10 -25 -31 -33 -47 -8 -15 -23
-33 -34 -39 -10 -6 -29 -21 -42 -33 -13 -13 -28 -23 -34 -23 -6 0 -21 10 -34
23 -13 12 -32 27 -42 33 -11 6 -26 24 -34 39 -8 16 -23 37 -32 47 -16 16 -22
38 -21 76 1 6 -5 12 -13 12 -21 0 -17 47 7 98 23 47 75 88 127 98 25 5 32 11
32 30 0 13 5 24 10 24 6 0 10 -11 10 -24z"/>
<path d="M420 648 c-45 -23 -73 -59 -85 -110 -6 -23 -4 -28 13 -28 10 0 35 11
55 24 35 24 36 24 39 4 2 -12 15 -30 31 -41 l27 -21 28 21 c15 11 28 29 30 41
3 20 4 20 39 -4 20 -13 45 -24 55 -24 17 0 19 5 13 28 -18 75 -89 132 -165
132 -20 0 -56 -10 -80 -22z"/>
<path d="M383 498 c-24 -12 -31 -50 -14 -77 8 -12 17 -7 46 22 31 31 35 40 25
52 -14 17 -26 18 -57 3z"/>
<path d="M560 495 c-10 -12 -6 -21 25 -52 29 -29 38 -34 46 -22 18 28 10 65
-16 77 -33 15 -40 15 -55 -3z"/>
<path d="M450 447 c-14 -24 1 -67 30 -85 25 -16 55 1 70 39 17 40 -2 64 -50
64 -26 0 -42 -5 -50 -18z"/>
<path d="M404 395 c-8 -21 25 -70 38 -57 6 6 4 20 -6 41 -19 35 -24 38 -32 16z"/>
<path d="M565 379 c-21 -39 -5 -62 19 -28 18 27 20 45 6 54 -5 3 -16 -9 -25
-26z"/>
<path d="M464 329 c-2 -4 5 -18 15 -30 18 -21 21 -22 35 -9 27 28 23 42 -12
44 -19 0 -36 -2 -38 -5z"/>
</g>
</svg>
